<svg xmlns="http://www.w3.org/2000/svg" version="1.1" xmlns:xlink="http://www.w3.org/1999/xlink" xmlns:svgjs="http://svgjs.dev/svgjs" width="1000" height="477" viewBox="0 0 1000 477"><g transform="matrix(1,0,0,1,-0.6060606060606233,-0.48809751651850775)"><svg viewBox="0 0 396 189" data-background-color="#ffffff" preserveAspectRatio="xMidYMid meet" height="477" width="1000" xmlns="http://www.w3.org/2000/svg" xmlns:xlink="http://www.w3.org/1999/xlink"><g id="tight-bounds" transform="matrix(1,0,0,1,0.2400000000000091,0.1933971291865788)"><svg viewBox="0 0 395.52 188.61320574162684" height="188.61320574162684" width="395.52"><g><svg viewBox="0 0 395.52 188.61320574162684" height="188.61320574162684" width="395.52"><g><svg viewBox="0 0 395.52 188.61320574162684" height="188.61320574162684" width="395.52"><g><svg viewBox="0 0 395.52 188.61320574162684" height="188.61320574162684" width="395.52"><g><svg viewBox="0 0 395.52 188.61320574162684" height="188.61320574162684" width="395.52"><g transform="matrix(1,0,0,1,0,0)"><svg width="395.52" viewBox="0.8999999999999964 -38.65 94.05000000000001 41.849999999999994" height="188.61320574162684" data-palette-color="#ffffff"><svg></svg><g class="undefined-text-0" data-fill-palette-color="primary" id="text-0"><path d="M33.2-22.25v0c0.767 0 1.15 0.483 1.15 1.45v0c0 1.033-0.417 2-1.25 2.9v0c-1.467 1.633-2.817 3.683-4.05 6.15v0c-1.867 3.733-2.8 7.1-2.8 10.1v0c0 1.167 0.21 2.017 0.63 2.55 0.413 0.533 0.887 0.8 1.42 0.8v0c1.6 0 3.467-1.3 5.6-3.9v0c1.9-2.433 3.35-4.8 4.35-7.1v0c0.267-0.533 0.533-0.767 0.8-0.7 0.267 0.067 0.283 0.367 0.05 0.9v0c-1.367 3.033-2.917 5.7-4.65 8v0c-0.9 1.233-2.017 2.26-3.35 3.08-1.333 0.813-2.657 1.22-3.97 1.22-1.32 0-2.313-0.523-2.98-1.57-0.667-1.053-1-2.297-1-3.73 0-1.433 0.177-2.85 0.53-4.25 0.347-1.4 0.803-2.483 1.37-3.25v0c-3.367 4.033-6.95 7.267-10.75 9.7v0c-2 1.233-4.217 1.967-6.65 2.2v0c-0.233 0.033-0.623 0.05-1.17 0.05-0.553 0-1.213-0.2-1.98-0.6v0c-2.4-1-3.6-3.443-3.6-7.33 0-3.88 1.267-8.087 3.8-12.62v0c1.333-2.4 2.8-4.517 4.4-6.35v0c-2.233-1.067-3.9-2.217-5-3.45v0c-0.8-0.9-1.2-1.983-1.2-3.25 0-1.267 0.25-2.067 0.75-2.4v0c0.333-0.433 0.633-0.517 0.9-0.25v0c0.2 0.3 0.21 0.667 0.03 1.1-0.187 0.433-0.28 0.85-0.28 1.25v0c0 0.9 0.483 1.9 1.45 3 0.967 1.1 2.383 2.083 4.25 2.95v0c7.833-8.7 15.967-13.05 24.4-13.05v0c2.633 0 4.727 0.59 6.28 1.77 1.547 1.187 2.32 2.713 2.32 4.58v0c0 2.033-1.133 4-3.4 5.9v0c-1.133 1-2.75 1.867-4.85 2.6v0c-3.2 1.133-7.007 1.7-11.42 1.7-4.42 0-8.08-0.467-10.98-1.4v0c-3.367 4.767-5.683 8.723-6.95 11.87-1.267 3.153-1.9 5.597-1.9 7.33v0c0 0.367 0.017 0.7 0.05 1v0c0.4 2.767 1.8 4.15 4.2 4.15v0c2.7 0 5.833-1.467 9.4-4.4v0c2.533-2.133 5.017-4.667 7.45-7.6 2.433-2.933 4.243-5.517 5.43-7.75 1.18-2.233 2.237-3.35 3.17-3.35zM40.95-32.9v0c0-1.433-0.59-2.533-1.77-3.3-1.187-0.767-2.813-1.15-4.88-1.15-2.067 0-4.123 0.333-6.17 1-2.053 0.667-3.97 1.65-5.75 2.95-1.787 1.3-3.37 2.633-4.75 4-1.387 1.367-2.88 3-4.48 4.9v0c2.5 0.8 5.567 1.2 9.2 1.2v0c6.833 0 11.817-1.1 14.95-3.3v0c2.433-1.7 3.65-3.8 3.65-6.3zM42.7-0.95v0c0.433 0.067 0.733 0.1 0.9 0.1v0c1.333 0 2.65-0.783 3.95-2.35v0c0.7-0.867 1.95-3.05 3.75-6.55v0c0.067-0.167 0.183-0.25 0.35-0.25v0c0.3-0.033 0.45 0.083 0.45 0.35v0c0 0.067-0.073 0.257-0.22 0.57-0.153 0.32-0.297 0.637-0.43 0.95-0.133 0.32-0.35 0.78-0.65 1.38-0.3 0.6-0.557 1.083-0.77 1.45-0.22 0.367-0.497 0.817-0.83 1.35-0.333 0.533-0.667 0.95-1 1.25v0l-1.05 1.1c-0.567 0.567-1.233 0.967-2 1.2v0c-1.233 0.4-2.433 0.433-3.6 0.1v0c-0.767 0.333-1.45 0.5-2.05 0.5v0c-2.367 0-3.8-0.933-4.3-2.8v0c-0.1-0.433-0.15-0.957-0.15-1.57 0-0.62 0.21-1.213 0.63-1.78 0.413-0.567 0.853-0.867 1.32-0.9v0c1.7-3.233 3.15-6.15 4.35-8.75v0c1.333-2.833 2.883-4.25 4.65-4.25v0c0.467 0 0.927 0.107 1.38 0.32 0.447 0.22 0.613 0.463 0.5 0.73-0.12 0.267-0.363 0.317-0.73 0.15-0.367-0.167-0.683-0.25-0.95-0.25-0.267 0-0.5 0.05-0.7 0.15v0c-1.133 0.533-1.7 1.683-1.7 3.45v0c0 0.933 0.133 1.7 0.4 2.3 0.267 0.6 0.567 1.25 0.9 1.95v0c0.767 1.733 1.15 3.15 1.15 4.25v0c0 1.1-0.35 2.183-1.05 3.25-0.7 1.067-1.533 1.933-2.5 2.6zM41-1.3v0c1.467-1.133 2.2-2.967 2.2-5.5v0c0-1.033-0.117-2.45-0.35-4.25-0.233-1.8-0.35-3.017-0.35-3.65 0-0.633 0.017-1.067 0.05-1.3v0c-2.533 5.067-4.1 8.15-4.7 9.25v0c0.7 0 1.05 0.5 1.05 1.5v0c0 1.967 0.7 3.283 2.1 3.95zM37.25-2.65v0c0 0.2 0.017 0.417 0.05 0.65v0c0.267 0.9 0.883 1.35 1.85 1.35v0c0.4 0 0.733-0.067 1-0.2v0c-1.233-0.767-1.9-2.017-2-3.75v0c-0.6 0.6-0.9 1.25-0.9 1.95zM74.9-16.4v0c-4.067 7.233-6.1 11.9-6.1 14v0c0 0.933 0.317 1.4 0.95 1.4v0c0.8 0 1.717-0.6 2.75-1.8v0c1.567-1.9 2.933-4.183 4.1-6.85v0c0.2-0.467 0.4-0.65 0.6-0.55 0.2 0.1 0.3 0.233 0.3 0.4 0 0.167-0.167 0.583-0.5 1.25-0.333 0.667-0.6 1.2-0.8 1.6-0.2 0.4-0.64 1.167-1.32 2.3-0.687 1.133-1.27 1.967-1.75 2.5-0.487 0.533-1.103 1.057-1.85 1.57-0.753 0.52-1.603 0.78-2.55 0.78-0.953 0-1.763-0.467-2.43-1.4v0c-0.3-0.433-0.45-1.027-0.45-1.78 0-0.747 0.167-1.653 0.5-2.72 0.333-1.067 1.25-2.8 2.75-5.2v0c0.367-0.6 0.55-1.077 0.55-1.43 0-0.347-0.273-0.52-0.82-0.52-0.553 0-1.547 0.667-2.98 2-1.433 1.333-2.94 3.133-4.52 5.4-1.587 2.267-2.53 4.083-2.83 5.45v0c-0.567 0-0.983-0.233-1.25-0.7-0.267-0.467-0.4-0.867-0.4-1.2v0c0-1.367 0.917-3.967 2.75-7.8v0c0.6-1.267 0.917-2.127 0.95-2.58 0.033-0.447-0.023-0.68-0.17-0.7-0.153-0.013-0.363 0.047-0.63 0.18v0c-0.6 0.3-1.517 1.033-2.75 2.2v0c-2.333 2.133-4.633 5.383-6.9 9.75v0c-0.167 0.367-0.373 0.59-0.62 0.67-0.253 0.087-0.747 0.147-1.48 0.18-0.733 0.033-1.217 0.117-1.45 0.25v0c0.6-1.167 1.65-3.35 3.15-6.55v0c2.7-5.733 4.5-9.033 5.4-9.9v0c0.4-0.4 0.95-0.6 1.65-0.6v0c0.133 0 0.477 0.05 1.03 0.15 0.547 0.1 0.953 0.117 1.22 0.05v0c-1.233 0.667-3.25 3.8-6.05 9.4v0c1.567-1.933 2.693-3.2 3.38-3.8 0.68-0.6 1.187-1.05 1.52-1.35 0.333-0.3 0.593-0.533 0.78-0.7 0.18-0.167 0.447-0.41 0.8-0.73 0.347-0.313 0.613-0.547 0.8-0.7 0.18-0.147 0.437-0.353 0.77-0.62 0.333-0.267 0.593-0.443 0.78-0.53 0.18-0.08 0.43-0.22 0.75-0.42 0.313-0.2 0.547-0.3 0.7-0.3 0.147 0 0.353-0.043 0.62-0.13 0.267-0.08 0.45-0.053 0.55 0.08v0c0.667 0.267 1 0.683 1 1.25v0c0 0.5-0.567 1.783-1.7 3.85-1.133 2.067-1.867 3.433-2.2 4.1v0c1.467-1.833 2.867-3.343 4.2-4.53 1.333-1.18 2.91-2.27 4.73-3.27 1.813-1 3.137-1.5 3.97-1.5v0c0.2 0 0.367 0.033 0.5 0.1zM91.8-13.55c-0.6 0.6-1.45 1.96-2.55 4.08-1.1 2.113-1.757 3.693-1.97 4.74-0.22 1.053-0.33 1.903-0.33 2.55 0 0.653 0.25 0.98 0.75 0.98v0c0.633 0 1.417-0.583 2.35-1.75v0c1.367-1.7 2.717-3.917 4.05-6.65v0c0.133-0.3 0.283-0.467 0.45-0.5v0c0.267-0.1 0.4 0 0.4 0.3v0c0 0.167-0.05 0.367-0.15 0.6v0c-3.067 6.2-5.65 9.3-7.75 9.3v0c-0.967 0-1.75-0.467-2.35-1.4v0c-0.3-0.5-0.45-1.167-0.45-2 0-0.833 0.167-1.85 0.5-3.05v0c-2.667 4.3-4.967 6.45-6.9 6.45v0c-0.533 0-1.017-0.167-1.45-0.5v0c-1-0.7-1.5-1.9-1.5-3.6v0c0-3.267 1.417-6.583 4.25-9.95v0c1.6-1.867 3.567-3.083 5.9-3.65v0c0.633-0.167 1.233-0.25 1.8-0.25v0c1.533 0 2.833 0.533 3.9 1.6v0c0.333 0.367 0.433 0.717 0.3 1.05-0.133 0.333-0.417 0.467-0.85 0.4v0c-0.367-1.2-1.167-1.8-2.4-1.8v0c-1.433 0-3.2 1.133-5.3 3.4v0c-1.2 1.333-2.317 2.9-3.35 4.7v0c-1.3 2.167-1.95 3.9-1.95 5.2 0 1.3 0.417 1.95 1.25 1.95v0c2 0 4.617-3.067 7.85-9.2v0c0.633-1.233 1.167-2.077 1.6-2.53 0.433-0.447 0.983-0.67 1.65-0.67v0c0.133 0 0.477 0.05 1.03 0.15 0.547 0.1 0.953 0.117 1.22 0.05z" fill="#ffffff" fill-rule="nonzero" stroke="none" stroke-width="1" stroke-linecap="butt" stroke-linejoin="miter" stroke-miterlimit="10" stroke-dasharray="" stroke-dashoffset="0" font-family="none" font-weight="none" font-size="none" text-anchor="none" style="mix-blend-mode: normal" data-fill-palette-color="primary" opacity="1"></path></g></svg></g></svg></g></svg></g></svg></g></svg></g><defs></defs></svg><rect width="395.52" height="188.61320574162684" fill="none" stroke="none" visibility="hidden"></rect></g></svg></g></svg>